<svg xmlns="http://www.w3.org/2000/svg" version="1.1" xmlns:xlink="http://www.w3.org/1999/xlink" xmlns:svgjs="http://svgjs.dev/svgjs" width="100%" height="100%" viewBox="0 0 1000 600"><rect width="1000" height="600" x="0" y="0" fill="#161616"/><g><rect width="333.3333333333333" height="333.3333333333333" rx="13.333333333333334" ry="13.333333333333334" y="98.5300251232311" fill="#161616" transform="matrix(1.6381025205822624,0,0,1.6381025205822624,0,-134.41937569558056)" x="76.30780029296875"/><path d="M272.8285094937716 337.34395872158575Q273.55827506451845 337.34395872158575 273.55827506451845 338.7703187007728Q273.55827506451845 340.19667867995986 272.8285094937716 340.19667867995986L272.8285094937716 340.19667867995986Q265.431340299383 340.19667867995986 261.1522603618219 339.9644805438131L261.1522603618219 339.9644805438131L244.66619269540428 339.7322824076664L229.37428687202697 339.9644805438131Q225.55960320675928 340.19667867995986 218.62683028466415 340.19667867995986L218.62683028466415 340.19667867995986Q218.16243401237068 340.19667867995986 218.16243401237068 338.7703187007728Q218.16243401237068 337.34395872158575 218.62683028466415 337.34395872158575L218.62683028466415 337.34395872158575Q226.7537650497996 337.34395872158575 230.70113336429392 336.01711222931874Q234.61533051648166 334.6902657370518 235.94217700874867 331.37314950638427Q237.26902350101568 328.02286211341004 236.77145606641557 320.8578910551681L236.77145606641557 320.8578910551681L232.4923761288544 212.18916333849975L178.02532762129354 338.53812056462607Q177.5609313490001 339.466913109213 176.10140020750637 339.466913109213L176.10140020750637 339.466913109213Q174.90723836446608 339.466913109213 173.97844581987914 338.53812056462607L173.97844581987914 338.53812056462607L115.19914621245046 213.6155233176868L113.07619182482324 314.15731626921973Q112.81082252636985 326.8287002703697 117.35527176238436 332.0697439148244Q121.89972099839888 337.34395872158575 133.37694315650856 337.34395872158575L133.37694315650856 337.34395872158575Q133.841339428802 337.34395872158575 133.841339428802 338.7703187007728Q133.841339428802 340.19667867995986 133.37694315650856 340.19667867995986L133.37694315650856 340.19667867995986Q126.67636837056013 340.19667867995986 123.0938828414392 339.9644805438131L123.0938828414392 339.9644805438131L110.19030070414249 339.7322824076664L97.7842860014459 339.9644805438131Q94.43399860847171 340.19667867995986 88.23099125712342 340.19667867995986L88.23099125712342 340.19667867995986Q87.73342382252329 340.19667867995986 87.73342382252329 338.7703187007728Q87.73342382252329 337.34395872158575 88.23099125712342 337.34395872158575L88.23099125712342 337.34395872158575Q98.24868227373938 337.34395872158575 102.66044686052719 331.9702304279044Q107.10538260962169 326.596502134223 107.3375807457684 314.15731626921973L107.3375807457684 314.15731626921973L109.49370629570231 203.33246300261743Q102.32873523746044 193.77916825829493 89.88954937245718 193.77916825829493L89.88954937245718 193.77916825829493Q89.42515310016373 193.77916825829493 89.42515310016373 192.3528082791079Q89.42515310016373 190.92644829992088 89.88954937245718 190.92644829992088L89.88954937245718 190.92644829992088L98.7462497083395 191.15864643606758Q101.13457339442013 191.39084457221432 105.41365333198124 191.39084457221432L105.41365333198124 191.39084457221432Q109.72590443184903 191.39084457221432 112.71130903944982 191.15864643606758Q115.69671364705059 190.92644829992088 117.35527176238436 190.92644829992088L117.35527176238436 190.92644829992088Q120.47336101921184 190.92644829992088 122.49680191991904 193.18208733677477Q124.52024282062624 195.47089753593536 128.3349264858939 203.33246300261743L128.3349264858939 203.33246300261743L181.60781315041447 315.58367624840673L233.68653797189472 196.89725751512242Q236.3070597941221 190.92644829992088 240.85150903013664 190.92644829992088L240.85150903013664 190.92644829992088Q242.0456708731769 190.92644829992088 244.30130991003085 191.15864643606758Q246.55694894688475 191.39084457221432 250.40480377445914 191.39084457221432L250.40480377445914 191.39084457221432L261.6166566341154 191.15864643606758Q264.2371784563427 190.92644829992088 269.5113932631041 190.92644829992088L269.5113932631041 190.92644829992088Q270.2079876715443 190.92644829992088 270.2079876715443 192.3528082791079Q270.2079876715443 193.77916825829493 269.5113932631041 193.77916825829493L269.5113932631041 193.77916825829493Q257.569774832701 193.77916825829493 252.4282446751663 197.26214030049584Q247.28671451763165 200.7119411803901 247.51891265377833 210.26523592471258L247.51891265377833 210.26523592471258L252.2955600259396 320.8578910551681Q252.52775816208634 328.2550602495568 254.0868027905001 331.6053476425309Q255.64584741891383 334.95563503550517 259.6927292203282 336.14979687854543Q263.7727821840492 337.34395872158575 272.8285094937716 337.34395872158575L272.8285094937716 337.34395872158575ZM324.44283804295844 319.89592734827454Q324.44283804295844 327.52529467880987 326.46627894366566 331.0082667210108Q328.4897198443728 334.45806760090505 334.32784441034767 335.88442758009205Q340.1991401386292 337.34395872158575 352.8373529774725 337.34395872158575L352.8373529774725 337.34395872158575Q353.56711854821936 337.34395872158575 353.56711854821936 338.7703187007728Q353.56711854821936 340.19667867995986 352.8373529774725 340.19667867995986L352.8373529774725 340.19667867995986Q343.0518600970033 340.19667867995986 337.5786183164019 339.9644805438131L337.5786183164019 339.9644805438131L316.7802995501164 339.7322824076664L300.79179931829896 339.9644805438131Q296.2473500822844 340.19667867995986 288.6179827517491 340.19667867995986L288.6179827517491 340.19667867995986Q288.12041531714897 340.19667867995986 288.12041531714897 338.7703187007728Q288.12041531714897 337.34395872158575 288.6179827517491 337.34395872158575L288.6179827517491 337.34395872158575Q297.67371006147147 337.34395872158575 301.85327651211253 336.14979687854543Q306.03284296275365 334.95563503550517 307.4592029419407 331.47266299330425Q308.9187340834344 328.02286211341004 308.9187340834344 320.8578910551681L308.9187340834344 320.8578910551681L308.9187340834344 210.26523592471258Q308.9187340834344 203.10026486647072 307.4592029419407 199.7499774734965Q306.03284296275365 196.43286124282895 301.85327651211253 195.10601475056194Q297.67371006147147 193.77916825829493 288.6179827517491 193.77916825829493L288.6179827517491 193.77916825829493Q288.12041531714897 193.77916825829493 288.12041531714897 192.3528082791079Q288.12041531714897 190.92644829992088 288.6179827517491 190.92644829992088L288.6179827517491 190.92644829992088L300.55960118215216 191.15864643606758Q310.57729219876813 191.65621387066773 316.5481014139697 191.65621387066773L316.5481014139697 191.65621387066773Q322.5189106291713 191.65621387066773 329.91607982355987 190.92644829992088L329.91607982355987 190.92644829992088Q332.8019709442407 190.92644829992088 339.0049782955889 190.56156551454745Q345.20798564693723 190.19668272917403 349.7524348829518 190.19668272917403L349.7524348829518 190.19668272917403Q371.71174432997077 190.19668272917403 384.980209252641 200.0153467719499Q398.2155030130044 209.8008396524191 398.2155030130044 229.86939284795773L398.2155030130044 229.86939284795773Q398.2155030130044 245.6256949436285 390.45345103324235 256.3731515309913Q382.69139905348027 267.1206081183541 370.51758248693045 272.36165176280883Q358.34376592038063 277.63586656957017 345.44018378308397 277.63586656957017L345.44018378308397 277.63586656957017Q338.50741086098884 277.63586656957017 333.996132787281 276.4417047265299L333.996132787281 276.4417047265299Q333.26636721653415 276.4417047265299 333.26636721653415 275.2475428834896L333.26636721653415 275.2475428834896Q333.26636721653415 274.51777731274274 333.6312500019076 273.78801174199583Q333.996132787281 273.0914173335557 334.46052905957447 273.3236154697024L334.46052905957447 273.3236154697024Q338.27521272484205 274.285579176596 343.0518600970033 274.285579176596L343.0518600970033 274.285579176596Q358.8081621926741 274.285579176596 369.68830342926356 264.0025188615266Q380.5684446658531 253.75262970876395 380.5684446658531 234.38067092166557L380.5684446658531 234.38067092166557Q380.5684446658531 215.53945073147398 370.28538435078383 204.65930949488444Q360.0023240357144 193.77916825829493 344.0138238038969 193.77916825829493L344.0138238038969 193.77916825829493Q335.422492766468 193.77916825829493 331.60780910120036 194.74113196518852Q327.75995427362597 195.7030956720821 326.10139615829223 199.15289655197634Q324.44283804295844 202.63586859417725 324.44283804295844 210.7628033593127L324.44283804295844 210.7628033593127L324.44283804295844 319.89592734827454Z " fill="#fbfafa" transform="matrix(1.6381025205822624,0,0,1.6381025205822624,0,-134.41937569558056)"/><path d="M499.4614975249692 338.984331499878L492.9990042769232 207.4801084291739Q492.39784211431424 201.54363207341066 506.5251529356242 195.90773679895193Q520.577318486608 190.19669625416708 529.7450414663942 190.19669625416708L529.7450414663942 190.19669625416708Q534.6294840375917 190.19669625416708 534.103467145309 192.37590909362444L534.103467145309 192.37590909362444L505.92399077301525 338.4583146075952Q504.8719569884496 339.51034839216084 502.1667272567094 340.0363652844436Q499.4614975249692 340.63752744705255 499.4614975249692 338.984331499878L499.4614975249692 338.984331499878Z " fill="#DDC67" transform="matrix(1.6381025205822624,0,0,1.6381025205822624,0,-134.41937569558056)"/></g></svg>